<ttFont>
<head>
    <!-- Most of this table will be recalculated by the compiler -->
    <tableVersion value="1.0"/>
    <fontRevision value="1.0"/>
    <checkSumAdjustment value="0xd1295034"/>
    <magicNumber value="0x5f0f3cf5"/>
    <flags value="00000000 00001001"/>
    <unitsPerEm value="1700"/>
    <created value="Mon Jan 29 19:50:54 2024"/>
    <modified value="Mon Jan 29 19:50:54 2024"/>
    <xMin value="-1"/>
    <yMin value="-114"/>
    <xMax value="1906"/>
    <yMax value="1492"/>
    <macStyle value="00000000 00000000"/>
    <lowestRecPPEM value="8"/>
    <fontDirectionHint value="2"/>
    <indexToLocFormat value="0"/>
    <glyphDataFormat value="0"/>
  </head>
    <TTGlyph name=".notdef" xMin="56" yMin="0" xMax="506" yMax="1133">
      <contour>
        <pt x="56" y="0" on="1"/>
        <pt x="56" y="1133" on="1"/>
        <pt x="506" y="1133" on="1"/>
        <pt x="506" y="0" on="1"/>
      </contour>
      <contour>
        <pt x="112" y="56" on="1"/>
        <pt x="450" y="56" on="1"/>
        <pt x="450" y="1077" on="1"/>
        <pt x="112" y="1077" on="1"/>
      </contour>
    </TTGlyph>
    <TTGlyph name="A" xMin="-1" yMin="0" xMax="1371" yMax="1466">
      <contour>
        <pt x="-1" y="0" on="1"/>
        <pt x="562" y="1466" on="1"/>
        <pt x="771" y="1466" on="1"/>
        <pt x="1371" y="0" on="1"/>
        <pt x="1150" y="0" on="1"/>
        <pt x="979" y="444" on="1"/>
        <pt x="366" y="444" on="1"/>
        <pt x="205" y="0" on="1"/>
      </contour>
      <contour>
        <pt x="422" y="602" on="1"/>
        <pt x="919" y="602" on="1"/>
        <pt x="766" y="1008" on="1"/>
        <pt x="693" y="1202" on="0"/>
        <pt x="662" y="1312" on="1"/>
        <pt x="634" y="1171" on="0"/>
        <pt x="583" y="1032" on="1"/>
      </contour>
    </TTGlyph>
    <TTGlyph name="B" xMin="151" yMin="0" xMax="1258" yMax="1466">
      <contour>
        <pt x="151" y="0" on="1"/>
        <pt x="151" y="1466" on="1"/>
        <pt x="701" y="1466" on="1"/>
        <pt x="937" y="1466" on="0"/>
        <pt x="1187" y="1261" on="0"/>
        <pt x="1187" y="1091" on="1"/>
        <pt x="1187" y="987" on="0"/>
        <pt x="1085" y="831" on="0"/>
        <pt x="982" y="780" on="1"/>
        <pt x="1108" y="746" on="0"/>
        <pt x="1258" y="556" on="0"/>
        <pt x="1258" y="425" on="1"/>
        <pt x="1258" y="239" on="0"/>
        <pt x="1008" y="0" on="0"/>
        <pt x="710" y="0" on="1"/>
      </contour>
      <contour>
        <pt x="345" y="850" on="1"/>
        <pt x="662" y="850" on="1"/>
        <pt x="836" y="850" on="0"/>
        <pt x="996" y="944" on="0"/>
        <pt x="996" y="1069" on="1"/>
        <pt x="996" y="1191" on="0"/>
        <pt x="846" y="1293" on="0"/>
        <pt x="638" y="1293" on="1"/>
        <pt x="345" y="1293" on="1"/>
      </contour>
      <contour>
        <pt x="345" y="173" on="1"/>
        <pt x="710" y="173" on="1"/>
        <pt x="889" y="173" on="0"/>
        <pt x="1057" y="294" on="0"/>
        <pt x="1057" y="423" on="1"/>
        <pt x="1057" y="558" on="0"/>
        <pt x="877" y="677" on="0"/>
        <pt x="684" y="677" on="1"/>
        <pt x="345" y="677" on="1"/>
      </contour>
    </TTGlyph>
    <TTGlyph name="C" xMin="105" yMin="-25" xMax="1401" yMax="1491">
      <contour>
        <pt x="1207" y="514" on="1"/>
        <pt x="1401" y="465" on="1"/>
        <pt x="1341" y="225" on="0"/>
        <pt x="1018" y="-25" on="0"/>
        <pt x="794" y="-25" on="1"/>
        <pt x="439" y="-25" on="0"/>
        <pt x="105" y="421" on="0"/>
        <pt x="105" y="744" on="1"/>
        <pt x="105" y="1096" on="0"/>
        <pt x="491" y="1491" on="0"/>
        <pt x="797" y="1491" on="1"/>
        <pt x="1017" y="1491" on="0"/>
        <pt x="1320" y="1264" on="0"/>
        <pt x="1376" y="1064" on="1"/>
        <pt x="1185" y="1019" on="1"/>
        <pt x="1086" y="1325" on="0"/>
        <pt x="804" y="1325" on="1"/>
        <pt x="554" y="1325" on="0"/>
        <pt x="305" y="1010" on="0"/>
        <pt x="305" y="751" on="1"/>
        <pt x="305" y="440" on="0"/>
        <pt x="566" y="141" on="0"/>
        <pt x="778" y="141" on="1"/>
        <pt x="939" y="141" on="0"/>
        <pt x="1170" y="329" on="0"/>
      </contour>
    </TTGlyph>
    <TTGlyph name="D" xMin="161" yMin="0" xMax="1373" yMax="1466">
      <contour>
        <pt x="161" y="0" on="1"/>
        <pt x="161" y="1466" on="1"/>
        <pt x="666" y="1466" on="1"/>
        <pt x="849" y="1466" on="0"/>
        <pt x="1075" y="1407" on="0"/>
        <pt x="1267" y="1221" on="0"/>
        <pt x="1373" y="934" on="0"/>
        <pt x="1373" y="744" on="1"/>
        <pt x="1373" y="478" on="0"/>
        <pt x="1179" y="123" on="0"/>
        <pt x="885" y="0" on="0"/>
        <pt x="690" y="0" on="1"/>
      </contour>
      <contour>
        <pt x="355" y="173" on="1"/>
        <pt x="668" y="173" on="1"/>
        <pt x="840" y="173" on="0"/>
        <pt x="1043" y="262" on="0"/>
        <pt x="1173" y="529" on="0"/>
        <pt x="1173" y="745" on="1"/>
        <pt x="1173" y="962" on="0"/>
        <pt x="1030" y="1218" on="0"/>
        <pt x="835" y="1293" on="0"/>
        <pt x="663" y="1293" on="1"/>
        <pt x="355" y="1293" on="1"/>
      </contour>
    </TTGlyph>
    <TTGlyph name="E" xMin="162" yMin="0" xMax="1256" yMax="1466">
      <contour>
        <pt x="162" y="0" on="1"/>
        <pt x="162" y="1466" on="1"/>
        <pt x="1222" y="1466" on="1"/>
        <pt x="1222" y="1293" on="1"/>
        <pt x="356" y="1293" on="1"/>
        <pt x="356" y="844" on="1"/>
        <pt x="1167" y="844" on="1"/>
        <pt x="1167" y="672" on="1"/>
        <pt x="356" y="672" on="1"/>
        <pt x="356" y="173" on="1"/>
        <pt x="1256" y="173" on="1"/>
        <pt x="1256" y="0" on="1"/>
      </contour>
    </TTGlyph>
    <TTGlyph name="F" xMin="164" yMin="0" xMax="1153" yMax="1466">
      <contour>
        <pt x="164" y="0" on="1"/>
        <pt x="164" y="1466" on="1"/>
        <pt x="1153" y="1466" on="1"/>
        <pt x="1153" y="1293" on="1"/>
        <pt x="358" y="1293" on="1"/>
        <pt x="358" y="839" on="1"/>
        <pt x="1046" y="839" on="1"/>
        <pt x="1046" y="666" on="1"/>
        <pt x="358" y="666" on="1"/>
        <pt x="358" y="0" on="1"/>
      </contour>
    </TTGlyph>
    <TTGlyph name="G" xMin="106" yMin="-25" xMax="1462" yMax="1491">
      <contour>
        <pt x="841" y="575" on="1"/>
        <pt x="841" y="748" on="1"/>
        <pt x="1462" y="748" on="1"/>
        <pt x="1462" y="204" on="1"/>
        <pt x="1321" y="90" on="0"/>
        <pt x="1018" y="-25" on="0"/>
        <pt x="855" y="-25" on="1"/>
        <pt x="511" y="-25" on="0"/>
        <pt x="106" y="388" on="0"/>
        <pt x="106" y="726" on="1"/>
        <pt x="106" y="1060" on="0"/>
        <pt x="487" y="1491" on="0"/>
        <pt x="840" y="1491" on="1"/>
        <pt x="1330" y="1491" on="0"/>
        <pt x="1440" y="1056" on="1"/>
        <pt x="1265" y="1008" on="1"/>
        <pt x="1187" y="1325" on="0"/>
        <pt x="841" y="1325" on="1"/>
        <pt x="567" y="1325" on="0"/>
        <pt x="306" y="990" on="0"/>
        <pt x="306" y="743" on="1"/>
        <pt x="306" y="443" on="0"/>
        <pt x="606" y="150" on="0"/>
        <pt x="844" y="150" on="1"/>
        <pt x="979" y="150" on="0"/>
        <pt x="1223" y="256" on="0"/>
        <pt x="1272" y="302" on="1"/>
        <pt x="1272" y="575" on="1"/>
      </contour>
    </TTGlyph>
    <TTGlyph name="H" xMin="164" yMin="0" xMax="1314" yMax="1466">
      <contour>
        <pt x="164" y="0" on="1"/>
        <pt x="164" y="1466" on="1"/>
        <pt x="358" y="1466" on="1"/>
        <pt x="358" y="864" on="1"/>
        <pt x="1120" y="864" on="1"/>
        <pt x="1120" y="1466" on="1"/>
        <pt x="1314" y="1466" on="1"/>
        <pt x="1314" y="0" on="1"/>
        <pt x="1120" y="0" on="1"/>
        <pt x="1120" y="691" on="1"/>
        <pt x="358" y="691" on="1"/>
        <pt x="358" y="0" on="1"/>
      </contour>
    </TTGlyph>
    <TTGlyph name="I" xMin="188" yMin="0" xMax="382" yMax="1466">
      <contour>
        <pt x="188" y="0" on="1"/>
        <pt x="188" y="1466" on="1"/>
        <pt x="382" y="1466" on="1"/>
        <pt x="382" y="0" on="1"/>
      </contour>
    </TTGlyph>
    <TTGlyph name="J" xMin="59" yMin="-25" xMax="865" yMax="1466">
      <contour>
        <pt x="59" y="416" on="1"/>
        <pt x="234" y="440" on="1"/>
        <pt x="240" y="148" on="0"/>
        <pt x="452" y="148" on="1"/>
        <pt x="570" y="148" on="0"/>
        <pt x="671" y="285" on="0"/>
        <pt x="671" y="456" on="1"/>
        <pt x="671" y="1466" on="1"/>
        <pt x="865" y="1466" on="1"/>
        <pt x="865" y="467" on="1"/>
        <pt x="865" y="176" on="0"/>
        <pt x="627" y="-25" on="0"/>
        <pt x="453" y="-25" on="1"/>
        <pt x="258" y="-25" on="0"/>
        <pt x="157" y="87" on="1"/>
        <pt x="59" y="195" on="0"/>
        <pt x="59" y="400" on="1"/>
        <pt x="59" y="400" on="0"/>
      </contour>
    </TTGlyph>
    <TTGlyph name="K" xMin="151" yMin="0" xMax="1363" yMax="1466">
      <contour>
        <pt x="151" y="0" on="1"/>
        <pt x="151" y="1466" on="1"/>
        <pt x="345" y="1466" on="1"/>
        <pt x="345" y="739" on="1"/>
        <pt x="1073" y="1466" on="1"/>
        <pt x="1336" y="1466" on="1"/>
        <pt x="721" y="872" on="1"/>
        <pt x="1363" y="0" on="1"/>
        <pt x="1107" y="0" on="1"/>
        <pt x="585" y="742" on="1"/>
        <pt x="345" y="508" on="1"/>
        <pt x="345" y="0" on="1"/>
      </contour>
    </TTGlyph>
    <TTGlyph name="L" xMin="154" yMin="0" xMax="1070" yMax="1466">
      <contour>
        <pt x="154" y="0" on="1"/>
        <pt x="154" y="1466" on="1"/>
        <pt x="348" y="1466" on="1"/>
        <pt x="348" y="173" on="1"/>
        <pt x="1070" y="173" on="1"/>
        <pt x="1070" y="0" on="1"/>
      </contour>
    </TTGlyph>
    <TTGlyph name="M" xMin="154" yMin="0" xMax="1553" yMax="1466">
      <contour>
        <pt x="154" y="0" on="1"/>
        <pt x="154" y="1466" on="1"/>
        <pt x="446" y="1466" on="1"/>
        <pt x="793" y="428" on="1"/>
        <pt x="863" y="211" on="1"/>
        <pt x="884" y="281" on="0"/>
        <pt x="941" y="446" on="1"/>
        <pt x="1292" y="1466" on="1"/>
        <pt x="1553" y="1466" on="1"/>
        <pt x="1553" y="0" on="1"/>
        <pt x="1366" y="0" on="1"/>
        <pt x="1366" y="1227" on="1"/>
        <pt x="940" y="0" on="1"/>
        <pt x="765" y="0" on="1"/>
        <pt x="341" y="1248" on="1"/>
        <pt x="341" y="0" on="1"/>
      </contour>
    </TTGlyph>
    <TTGlyph name="N" xMin="162" yMin="0" xMax="1317" yMax="1466">
      <contour>
        <pt x="162" y="0" on="1"/>
        <pt x="162" y="1466" on="1"/>
        <pt x="361" y="1466" on="1"/>
        <pt x="1131" y="315" on="1"/>
        <pt x="1131" y="1466" on="1"/>
        <pt x="1317" y="1466" on="1"/>
        <pt x="1317" y="0" on="1"/>
        <pt x="1118" y="0" on="1"/>
        <pt x="348" y="1152" on="1"/>
        <pt x="348" y="0" on="1"/>
      </contour>
    </TTGlyph>
    <TTGlyph name="O" xMin="96" yMin="-25" xMax="1498" yMax="1492">
      <contour>
        <pt x="96" y="714" on="1"/>
        <pt x="96" y="1080" on="0"/>
        <pt x="490" y="1492" on="0"/>
        <pt x="798" y="1492" on="1"/>
        <pt x="1107" y="1492" on="0"/>
        <pt x="1498" y="1073" on="0"/>
        <pt x="1498" y="731" on="1"/>
        <pt x="1498" y="391" on="0"/>
        <pt x="1104" y="-25" on="0"/>
        <pt x="797" y="-25" on="1"/>
        <pt x="576" y="-25" on="0"/>
        <pt x="243" y="196" on="0"/>
        <pt x="96" y="543" on="0"/>
      </contour>
      <contour>
        <pt x="296" y="711" on="1"/>
        <pt x="296" y="460" on="0"/>
        <pt x="568" y="141" on="0"/>
        <pt x="796" y="141" on="1"/>
        <pt x="1020" y="141" on="0"/>
        <pt x="1298" y="456" on="0"/>
        <pt x="1298" y="732" on="1"/>
        <pt x="1298" y="1012" on="0"/>
        <pt x="1018" y="1325" on="0"/>
        <pt x="799" y="1325" on="1"/>
        <pt x="584" y="1325" on="0"/>
        <pt x="296" y="1031" on="0"/>
      </contour>
    </TTGlyph>
    <TTGlyph name="P" xMin="158" yMin="0" xMax="1277" yMax="1466">
      <contour>
        <pt x="158" y="0" on="1"/>
        <pt x="158" y="1466" on="1"/>
        <pt x="711" y="1466" on="1"/>
        <pt x="901" y="1466" on="0"/>
        <pt x="1127" y="1400" on="0"/>
        <pt x="1277" y="1191" on="0"/>
        <pt x="1277" y="1042" on="1"/>
        <pt x="1277" y="853" on="0"/>
        <pt x="1035" y="596" on="0"/>
        <pt x="728" y="596" on="1"/>
        <pt x="352" y="596" on="1"/>
        <pt x="352" y="0" on="1"/>
      </contour>
      <contour>
        <pt x="352" y="769" on="1"/>
        <pt x="731" y="769" on="1"/>
        <pt x="904" y="769" on="0"/>
        <pt x="1077" y="903" on="0"/>
        <pt x="1077" y="1036" on="1"/>
        <pt x="1077" y="1129" on="0"/>
        <pt x="983" y="1259" on="0"/>
        <pt x="858" y="1293" on="0"/>
        <pt x="727" y="1293" on="1"/>
        <pt x="352" y="1293" on="1"/>
      </contour>
    </TTGlyph>
    <TTGlyph name="Q" xMin="96" yMin="-114" xMax="1526" yMax="1492">
      <contour>
        <pt x="1277" y="157" on="1"/>
        <pt x="1430" y="55" on="0"/>
        <pt x="1526" y="21" on="1"/>
        <pt x="1469" y="-114" on="1"/>
        <pt x="1310" y="-58" on="0"/>
        <pt x="1154" y="66" on="1"/>
        <pt x="991" y="-25" on="0"/>
        <pt x="794" y="-25" on="1"/>
        <pt x="473" y="-25" on="0"/>
        <pt x="96" y="414" on="0"/>
        <pt x="96" y="733" on="1"/>
        <pt x="96" y="1066" on="0"/>
        <pt x="481" y="1492" on="0"/>
        <pt x="798" y="1492" on="1"/>
        <pt x="1014" y="1492" on="0"/>
        <pt x="1339" y="1283" on="0"/>
        <pt x="1498" y="941" on="0"/>
        <pt x="1498" y="734" on="1"/>
        <pt x="1498" y="371" on="0"/>
      </contour>
      <contour>
        <pt x="850" y="405" on="1"/>
        <pt x="1019" y="359" on="0"/>
        <pt x="1127" y="265" on="1"/>
        <pt x="1298" y="421" on="0"/>
        <pt x="1298" y="734" on="1"/>
        <pt x="1298" y="1000" on="0"/>
        <pt x="1032" y="1325" on="0"/>
        <pt x="799" y="1325" on="1"/>
        <pt x="579" y="1325" on="0"/>
        <pt x="296" y="1024" on="0"/>
        <pt x="296" y="733" on="1"/>
        <pt x="296" y="455" on="0"/>
        <pt x="572" y="141" on="0"/>
        <pt x="796" y="141" on="1"/>
        <pt x="904" y="141" on="0"/>
        <pt x="995" y="180" on="1"/>
        <pt x="903" y="241" on="0"/>
        <pt x="803" y="264" on="1"/>
      </contour>
    </TTGlyph>
    <TTGlyph name="R" xMin="164" yMin="0" xMax="1456" yMax="1466">
      <contour>
        <pt x="164" y="0" on="1"/>
        <pt x="164" y="1466" on="1"/>
        <pt x="814" y="1466" on="1"/>
        <pt x="985" y="1466" on="0"/>
        <pt x="1193" y="1404" on="0"/>
        <pt x="1336" y="1203" on="0"/>
        <pt x="1336" y="1066" on="1"/>
        <pt x="1336" y="906" on="0"/>
        <pt x="1126" y="692" on="0"/>
        <pt x="923" y="667" on="1"/>
        <pt x="1068" y="606" on="0"/>
        <pt x="1201" y="399" on="1"/>
        <pt x="1456" y="0" on="1"/>
        <pt x="1212" y="0" on="1"/>
        <pt x="1018" y="305" on="1"/>
        <pt x="866" y="542" on="0"/>
        <pt x="715" y="651" on="0"/>
        <pt x="583" y="651" on="1"/>
        <pt x="358" y="651" on="1"/>
        <pt x="358" y="0" on="1"/>
      </contour>
      <contour>
        <pt x="358" y="819" on="1"/>
        <pt x="775" y="819" on="1"/>
        <pt x="956" y="819" on="0"/>
        <pt x="1136" y="942" on="0"/>
        <pt x="1136" y="1065" on="1"/>
        <pt x="1136" y="1159" on="0"/>
        <pt x="999" y="1304" on="0"/>
        <pt x="822" y="1304" on="1"/>
        <pt x="358" y="1304" on="1"/>
      </contour>
    </TTGlyph>
    <TTGlyph name="S" xMin="92" yMin="-25" xMax="1259" yMax="1491">
      <contour>
        <pt x="92" y="471" on="1"/>
        <pt x="275" y="487" on="1"/>
        <pt x="292" y="308" on="0"/>
        <pt x="544" y="149" on="0"/>
        <pt x="704" y="149" on="1"/>
        <pt x="873" y="149" on="0"/>
        <pt x="1072" y="283" on="0"/>
        <pt x="1072" y="398" on="1"/>
        <pt x="1072" y="470" on="0"/>
        <pt x="988" y="572" on="0"/>
        <pt x="837" y="629" on="0"/>
        <pt x="628" y="679" on="1"/>
        <pt x="450" y="722" on="0"/>
        <pt x="265" y="811" on="0"/>
        <pt x="148" y="977" on="0"/>
        <pt x="148" y="1087" on="1"/>
        <pt x="148" y="1264" on="0"/>
        <pt x="428" y="1491" on="0"/>
        <pt x="664" y="1491" on="1"/>
        <pt x="915" y="1491" on="0"/>
        <pt x="1206" y="1258" on="0"/>
        <pt x="1215" y="1053" on="1"/>
        <pt x="1029" y="1039" on="1"/>
        <pt x="1006" y="1320" on="0"/>
        <pt x="674" y="1320" on="1"/>
        <pt x="513" y="1320" on="0"/>
        <pt x="335" y="1203" on="0"/>
        <pt x="335" y="1100" on="1"/>
        <pt x="335" y="1010" on="0"/>
        <pt x="468" y="915" on="0"/>
        <pt x="683" y="866" on="1"/>
        <pt x="905" y="816" on="0"/>
        <pt x="1126" y="723" on="0"/>
        <pt x="1259" y="538" on="0"/>
        <pt x="1259" y="415" on="1"/>
        <pt x="1259" y="221" on="0"/>
        <pt x="960" y="-25" on="0"/>
        <pt x="717" y="-25" on="1"/>
        <pt x="408" y="-25" on="0"/>
        <pt x="96" y="254" on="0"/>
      </contour>
    </TTGlyph>
    <TTGlyph name="T" xMin="44" yMin="0" xMax="1206" yMax="1466">
      <contour>
        <pt x="527" y="0" on="1"/>
        <pt x="527" y="1293" on="1"/>
        <pt x="44" y="1293" on="1"/>
        <pt x="44" y="1466" on="1"/>
        <pt x="1206" y="1466" on="1"/>
        <pt x="1206" y="1293" on="1"/>
        <pt x="721" y="1293" on="1"/>
        <pt x="721" y="0" on="1"/>
      </contour>
    </TTGlyph>
    <TTGlyph name="U" xMin="163" yMin="-25" xMax="1316" yMax="1466">
      <contour>
        <pt x="1122" y="1466" on="1"/>
        <pt x="1316" y="1466" on="1"/>
        <pt x="1316" y="620" on="1"/>
        <pt x="1316" y="402" on="0"/>
        <pt x="1217" y="135" on="0"/>
        <pt x="949" y="-25" on="0"/>
        <pt x="740" y="-25" on="1"/>
        <pt x="431" y="-25" on="0"/>
        <pt x="163" y="280" on="0"/>
        <pt x="163" y="620" on="1"/>
        <pt x="163" y="1466" on="1"/>
        <pt x="357" y="1466" on="1"/>
        <pt x="357" y="620" on="1"/>
        <pt x="357" y="429" on="0"/>
        <pt x="430" y="244" on="0"/>
        <pt x="607" y="150" on="0"/>
        <pt x="723" y="150" on="1"/>
        <pt x="942" y="150" on="0"/>
        <pt x="1122" y="346" on="0"/>
        <pt x="1122" y="620" on="1"/>
      </contour>
    </TTGlyph>
    <TTGlyph name="V" xMin="10" yMin="0" xMax="1351" yMax="1466">
      <contour>
        <pt x="578" y="0" on="1"/>
        <pt x="10" y="1466" on="1"/>
        <pt x="220" y="1466" on="1"/>
        <pt x="601" y="401" on="1"/>
        <pt x="651" y="262" on="0"/>
        <pt x="678" y="161" on="1"/>
        <pt x="712" y="281" on="0"/>
        <pt x="757" y="401" on="1"/>
        <pt x="1153" y="1466" on="1"/>
        <pt x="1351" y="1466" on="1"/>
        <pt x="777" y="0" on="1"/>
      </contour>
    </TTGlyph>
    <TTGlyph name="W" xMin="21" yMin="0" xMax="1906" yMax="1466">
      <contour>
        <pt x="410" y="0" on="1"/>
        <pt x="21" y="1466" on="1"/>
        <pt x="220" y="1466" on="1"/>
        <pt x="443" y="505" on="1"/>
        <pt x="481" y="343" on="0"/>
        <pt x="505" y="205" on="1"/>
        <pt x="571" y="476" on="1"/>
        <pt x="850" y="1466" on="1"/>
        <pt x="1084" y="1466" on="1"/>
        <pt x="1294" y="724" on="1"/>
        <pt x="1372" y="449" on="0"/>
        <pt x="1408" y="205" on="1"/>
        <pt x="1436" y="344" on="0"/>
        <pt x="1481" y="524" on="1"/>
        <pt x="1711" y="1466" on="1"/>
        <pt x="1906" y="1466" on="1"/>
        <pt x="1504" y="0" on="1"/>
        <pt x="1317" y="0" on="1"/>
        <pt x="1008" y="1117" on="1"/>
        <pt x="962" y="1289" on="1"/>
        <pt x="940" y="1193" on="0"/>
        <pt x="919" y="1117" on="1"/>
        <pt x="608" y="0" on="1"/>
      </contour>
    </TTGlyph>
    <TTGlyph name="X" xMin="9" yMin="0" xMax="1353" yMax="1466">
      <contour>
        <pt x="9" y="0" on="1"/>
        <pt x="576" y="764" on="1"/>
        <pt x="76" y="1466" on="1"/>
        <pt x="307" y="1466" on="1"/>
        <pt x="573" y="1090" on="1"/>
        <pt x="662" y="965" on="0"/>
        <pt x="691" y="910" on="1"/>
        <pt x="740" y="990" on="0"/>
        <pt x="807" y="1077" on="1"/>
        <pt x="1102" y="1466" on="1"/>
        <pt x="1313" y="1466" on="1"/>
        <pt x="798" y="775" on="1"/>
        <pt x="1353" y="0" on="1"/>
        <pt x="1113" y="0" on="1"/>
        <pt x="744" y="523" on="1"/>
        <pt x="711" y="571" on="0"/>
        <pt x="680" y="621" on="1"/>
        <pt x="635" y="546" on="0"/>
        <pt x="610" y="511" on="1"/>
        <pt x="242" y="0" on="1"/>
      </contour>
    </TTGlyph>
    <TTGlyph name="Y" xMin="6" yMin="0" xMax="1350" yMax="1466">
      <contour>
        <pt x="571" y="0" on="1"/>
        <pt x="571" y="621" on="1"/>
        <pt x="6" y="1466" on="1"/>
        <pt x="242" y="1466" on="1"/>
        <pt x="531" y="1024" on="1"/>
        <pt x="616" y="893" on="0"/>
        <pt x="680" y="776" on="1"/>
        <pt x="746" y="891" on="0"/>
        <pt x="840" y="1035" on="1"/>
        <pt x="1124" y="1466" on="1"/>
        <pt x="1350" y="1466" on="1"/>
        <pt x="765" y="621" on="1"/>
        <pt x="765" y="0" on="1"/>
      </contour>
    </TTGlyph>
    <TTGlyph name="Z" xMin="37" yMin="0" xMax="1196" yMax="1466">
      <contour>
        <pt x="37" y="0" on="1"/>
        <pt x="37" y="180" on="1"/>
        <pt x="788" y="1119" on="1"/>
        <pt x="868" y="1219" on="0"/>
        <pt x="940" y="1293" on="1"/>
        <pt x="122" y="1293" on="1"/>
        <pt x="122" y="1466" on="1"/>
        <pt x="1172" y="1466" on="1"/>
        <pt x="1172" y="1293" on="1"/>
        <pt x="349" y="276" on="1"/>
        <pt x="305" y="224" on="0"/>
        <pt x="260" y="173" on="1"/>
        <pt x="1196" y="173" on="1"/>
        <pt x="1196" y="0" on="1"/>
      </contour>
    </TTGlyph>
</ttFont>
